<?xml version="1.0" encoding="iso-8859-1"?>
<!-- Generator: Adobe Illustrator 18.0.0, SVG Export Plug-In . SVG Version: 6.00 Build 0)  -->
<!DOCTYPE svg PUBLIC "-//W3C//DTD SVG 1.1//EN" "http://www.w3.org/Graphics/SVG/1.1/DTD/svg11.dtd">
<svg version="1.1" id="Capa_1" xmlns="http://www.w3.org/2000/svg" xmlns:xlink="http://www.w3.org/1999/xlink" x="0px" y="0px"
	 viewBox="0 0 60 60" style="enable-background:new 0 0 60 60;" xml:space="preserve">
<g>
	<path d="M44.071,15H5.93C2.66,15,0,17.66,0,20.93V42.07C0,45.34,2.66,48,5.929,48H12v10c0,0.413,0.254,0.784,0.639,0.933
		C12.757,58.979,12.879,59,13,59c0.276,0,0.547-0.114,0.74-0.327L23.442,48H44.07c3.27,0,5.93-2.66,5.93-5.93V20.93
		C50,17.66,47.34,15,44.071,15z M12,36c-2.206,0-4-1.794-4-4s1.794-4,4-4s4,1.794,4,4S14.206,36,12,36z M25,36c-2.206,0-4-1.794-4-4
		s1.794-4,4-4s4,1.794,4,4S27.206,36,25,36z M38,36c-2.206,0-4-1.794-4-4s1.794-4,4-4s4,1.794,4,4S40.206,36,38,36z"/>
	<path d="M54.07,1H15.93C12.66,1,10,3.66,10,6.93V13h34.071C48.443,13,52,16.558,52,20.93V34h2.07c3.27,0,5.93-2.66,5.93-5.93V6.93
		C60,3.66,57.34,1,54.07,1z"/>
</g>
<g>
</g>
<g>
</g>
<g>
</g>
<g>
</g>
<g>
</g>
<g>
</g>
<g>
</g>
<g>
</g>
<g>
</g>
<g>
</g>
<g>
</g>
<g>
</g>
<g>
</g>
<g>
</g>
<g>
</g>
</svg>
